# Blender v2.77 (sub 0) OBJ File: ''
# www.blender.org
mtllib tombstone2.mtl
o Cube_Cube.001
v -0.307624 0.035353 0.053734
v -0.307624 0.807904 0.053734
v -0.307624 0.035353 -0.031160
v -0.307624 0.807904 -0.031160
v 0.298786 0.035353 0.053734
v 0.298786 0.807904 0.053734
v 0.298786 0.035353 -0.031160
v 0.298786 0.807904 -0.031160
v -0.004419 0.981761 -0.031160
v -0.004419 0.981761 0.053734
v 0.147183 0.944085 -0.031160
v -0.156022 0.948959 0.053734
v -0.156022 0.948959 -0.031160
v 0.147183 0.944085 0.053734
v 0.222984 0.898202 -0.031160
v -0.231823 0.897888 0.053734
v -0.080220 0.975210 -0.031160
v 0.071382 0.969989 0.053734
v 0.071382 0.969989 -0.031160
v -0.080220 0.975210 0.053734
v -0.231823 0.897888 -0.031160
v 0.222984 0.898202 0.053734
vt 0.719831 0.808743
vt 0.909671 0.808743
vt 0.895770 0.048756
vt 0.705930 0.048756
vt 0.910292 0.821986
vt 0.826354 0.894207
vt 0.750943 0.934728
vt 0.646013 0.964443
vt 0.502468 0.985253
vt 0.434775 0.980755
vt 0.271921 0.949421
vt 0.181517 0.898475
vt 0.073497 0.810962
vt 0.080065 0.049983
vt 0.904819 0.049983
vt 0.711469 0.778744
vt 0.890883 0.778744
vt 0.890883 0.051256
vt 0.711469 0.051257
vt 0.911092 0.823721
vt 0.827238 0.894109
vt 0.746860 0.935078
vt 0.645630 0.964944
vt 0.502697 0.984879
vt 0.436220 0.980459
vt 0.275911 0.952728
vt 0.181632 0.898778
vt 0.073451 0.811221
vt 0.080402 0.050121
vt 0.904142 0.050121
vt 0.755072 0.052575
vt 0.752398 0.122342
vt 0.252630 0.120059
vt 0.255305 0.050291
vt 0.591935 0.739968
vt 0.589746 0.812628
vt 0.497906 0.812629
vt 0.500095 0.739968
vt 0.290860 0.739968
vt 0.288671 0.812629
vt 0.177388 0.812629
vt 0.179577 0.739968
vt 0.400341 0.812629
vt 0.402530 0.739968
vt 0.077638 0.812629
vt 0.079827 0.739968
vt 0.811729 0.739968
vt 0.809539 0.812629
vt 0.692520 0.812628
vt 0.694709 0.739968
vt 0.911699 0.812629
vt 0.913888 0.739968
vn -1.000000 0.000000 0.000000
vn 0.000000 0.000000 -1.000000
vn 1.000000 0.000000 0.000000
vn -0.000000 0.000000 1.000000
vn 0.000000 -1.000000 0.000000
vn 0.153500 0.988200 0.000000
vn -0.558800 0.829300 0.000000
vn -0.327200 0.944900 0.000000
vn -0.086100 0.996300 0.000000
vn -0.764800 0.644300 0.000000
vn 0.517800 0.855500 0.000000
vn 0.323400 0.946300 0.000000
vn 0.765900 0.642900 0.000000
usemtl None
s off
f 2/1/1 4/2/1 3/3/1 1/4/1
f 4/5/2 21/6/2 13/7/2 17/8/2 9/9/2 19/10/2 11/11/2 15/12/2 8/13/2 7/14/2 3/15/2
f 8/16/3 6/17/3 5/18/3 7/19/3
f 6/20/4 22/21/4 14/22/4 18/23/4 10/24/4 20/25/4 12/26/4 16/27/4 2/28/4 1/29/4 5/30/4
f 1/31/5 3/32/5 7/33/5 5/34/5
f 18/35/6 19/36/6 9/37/6 10/38/6
f 12/39/7 13/40/7 21/41/7 16/42/7
f 17/43/8 13/40/8 12/39/8 20/44/8
f 10/38/9 9/37/9 17/43/9 20/44/9
f 16/42/10 21/41/10 4/45/10 2/46/10
f 22/47/11 15/48/11 11/49/11 14/50/11
f 14/50/12 11/49/12 19/36/12 18/35/12
f 8/51/13 15/48/13 22/47/13 6/52/13
